<svg id="_002-facebook-logo" data-name="002-facebook-logo" xmlns="http://www.w3.org/2000/svg" width="14.322" height="26.49" viewBox="0 0 14.322 26.49">
  <path id="Trazado_70" data-name="Trazado 70" d="M35.859.006,32.424,0c-3.859,0-6.353,2.559-6.353,6.519V9.525H22.617a.54.54,0,0,0-.54.54v4.355a.54.54,0,0,0,.54.54h3.454V25.95a.54.54,0,0,0,.54.54h4.506a.54.54,0,0,0,.54-.54V14.961H35.7a.54.54,0,0,0,.54-.54l0-4.355a.541.541,0,0,0-.54-.54h-4.04V6.977c0-1.225.292-1.846,1.887-1.846h2.314a.54.54,0,0,0,.54-.54V.546A.54.54,0,0,0,35.859.006Z" transform="translate(-22.077)" fill="#272727"/>
</svg>
