<svg id="instagram_1_" data-name="instagram (1)" xmlns="http://www.w3.org/2000/svg" width="22.513" height="22.513" viewBox="0 0 22.513 22.513">
  <path id="Trazado_74" data-name="Trazado 74" d="M15.806,0h-9.1A6.714,6.714,0,0,0,0,6.707v9.1a6.714,6.714,0,0,0,6.707,6.707h9.1a6.714,6.714,0,0,0,6.707-6.707v-9.1A6.714,6.714,0,0,0,15.806,0Zm4.442,15.806a4.442,4.442,0,0,1-4.442,4.442h-9.1a4.442,4.442,0,0,1-4.442-4.442v-9.1A4.442,4.442,0,0,1,6.707,2.265h9.1a4.442,4.442,0,0,1,4.442,4.442v9.1Z" transform="translate(0 0)" fill="#6a6a6a"/>
  <path id="Trazado_75" data-name="Trazado 75" d="M138.823,133a5.823,5.823,0,1,0,5.823,5.823A5.829,5.829,0,0,0,138.823,133Zm0,9.38a3.558,3.558,0,1,1,3.558-3.558A3.558,3.558,0,0,1,138.823,142.38Z" transform="translate(-127.566 -127.566)" fill="#6a6a6a"/>
  <ellipse id="Elipse_5" data-name="Elipse 5" cx="1.395" cy="1.395" rx="1.395" ry="1.395" transform="translate(15.695 4.082)" fill="#6a6a6a"/>
</svg>
