<svg id="logo_persa" xmlns="http://www.w3.org/2000/svg" width="286" height="88.789" viewBox="0 0 286 88.789">
  <g id="Grupo_8720" data-name="Grupo 8720" transform="translate(247.987 41.067)">
    <path id="Trazado_2018" data-name="Trazado 2018" d="M81.22,26.148h6.961l1.435-6.778H82.655Z" transform="translate(-81.22 -1.295)" fill="#d5cbec"/>
    <path id="Trazado_2019" data-name="Trazado 2019" d="M101.958,26.739l-6.87-1.1-.366,1.008a3.777,3.777,0,0,1-1.1,1.71c-.763.58-1.527.672-2.015.122a1.965,1.965,0,0,1-.366-1.343,11.253,11.253,0,0,1,.519-3.145,4.582,4.582,0,0,1,1.282-2.229,2.02,2.02,0,0,1,2.382-.336,1.988,1.988,0,0,1,.427,1.191L96,23.9l6.687-.7-.122-1.282a7.086,7.086,0,0,0-2.351-4.794,8.02,8.02,0,0,0-5.4-1.8,10.423,10.423,0,0,0-5.5,1.527,9.622,9.622,0,0,0-3.786,4.244,13.155,13.155,0,0,0-1.221,5.526A8.275,8.275,0,0,0,86.478,32.6,7.919,7.919,0,0,0,92.31,34.83a9.343,9.343,0,0,0,5.526-1.71,10.184,10.184,0,0,0,3.572-4.916Z" transform="translate(-74.875 -9.61)" fill="#d5cbec"/>
    <path id="Trazado_2020" data-name="Trazado 2020" d="M94.871,13.45,89.68,38.3h6.992l5.191-24.854Z" transform="translate(-63.849 -13.45)" fill="#d5cbec"/>
  </g>
  <path id="Trazado_2021" data-name="Trazado 2021" d="M1.24,61.843H22.185l2.84-17.984H36.108c12.121,0,20.945-7.6,22.869-19.816C61.328,9.235,52.138,2.09,38.185,2.09H10.705ZM29.055,18.425H31.1c3.572,0,7.969.244,7.236,4.916-.763,4.824-4.977,5.465-8.793,5.465H27.407Z" transform="translate(2.546 4.291)" fill="#d5cbec"/>
  <path id="Trazado_2022" data-name="Trazado 2022" d="M69.817,33C73.359,17.218,63.069,7.57,48.077,7.57c-13.4,0-25.556,8.732-27.754,22.686-2.29,14.5,8.763,21.312,21.984,21.312,9.679,0,21.739-4.672,26.044-14.808H48.444a5.079,5.079,0,0,1-4.672,3.481c-4.275,0-4.244-3.817-3.694-7.206L69.817,33ZM41.482,24.271c.458-2.931,2.382-5.465,5.465-5.465,2.931,0,4.58,2.626,4.122,5.465Z" transform="translate(41.109 15.543)" fill="#d5cbec"/>
  <path id="Trazado_2023" data-name="Trazado 2023" d="M78.755,7.578c-6.87-.153-10.778,1.038-15.3,6.565h-.489l1.374-5.618H43.886L37.23,50.63H57.687l2.565-16.182c.824-5.221,4.03-8.4,9.343-8.4,2.626,0,3.969,1.038,5.893,2.29Z" transform="translate(76.443 15.535)" fill="#d5cbec"/>
  <path id="Trazado_2024" data-name="Trazado 2024" d="M48.88,46.886c5.679,2.626,11.847,4.672,18.533,4.672,9.526,0,21.1-4.519,22.808-15.45,1.343-8.488-4.214-11.022-11.3-12.213-2.778-.489-4.977-.641-4.641-2.687.244-1.5,1.954-1.893,3.236-1.893A14.644,14.644,0,0,1,86.4,22.8l6.839-11.663C89.061,8.6,82.71,7.56,77.489,7.56c-9.038,0-20.335,4.214-21.984,14.747-1.252,7.939,4.641,10.686,11.328,11.664,1.618.244,4.061.305,3.694,2.626-.244,1.588-2.015,2.29-3.389,2.29-3.481,0-7.267-2.137-9.862-3.878l-1.13-.794Z" transform="translate(100.364 15.523)" fill="#d5cbec"/>
  <path id="Trazado_2025" data-name="Trazado 2025" d="M84.429,29.37c.489-3.084,2.992-5.8,6.229-5.8s5.1,2.382,4.58,5.618-2.6,6.351-6.473,6.351C85.04,35.538,83.88,32.7,84.429,29.37Zm6.778,21.22h20.06l6.656-42.1H97.864l-.153,5.007h-.489C94.872,9.371,90.963,7.57,85.895,7.57c-11.877,0-20.152,11.572-21.831,22.2-1.618,10.228,2.9,21.8,14.289,21.8,5.8,0,9.526-2.534,13.862-6.5H92.7Z" transform="translate(130.887 15.543)" fill="#d5cbec"/>
  <g id="Grupo_8721" data-name="Grupo 8721" transform="translate(0 2.595)">
    <path id="Trazado_2026" data-name="Trazado 2026" d="M0,60.6H20.915l2.84-17.984H34.838c12.121,0,20.945-7.6,22.869-19.816C60.058,7.995,50.868.85,36.914.85H9.465ZM27.815,17.154h2.076c3.572,0,7.969.244,7.236,4.916-.763,4.824-4.977,5.465-8.793,5.465H26.2Z" transform="translate(0 -0.85)" fill="#000f9f"/>
    <path id="Trazado_2027" data-name="Trazado 2027" d="M68.577,31.764C72.119,15.978,61.829,6.33,46.837,6.33c-13.4,0-25.556,8.732-27.754,22.686-2.29,14.5,8.763,21.312,21.984,21.312,9.679,0,21.739-4.672,26.044-14.808H47.2A5.079,5.079,0,0,1,42.532,39c-4.275,0-4.244-3.817-3.694-7.206l29.739-.031ZM40.212,23.031c.458-2.931,2.382-5.465,5.465-5.465,2.931,0,4.58,2.626,4.122,5.465Z" transform="translate(38.563 10.402)" fill="#000f9f"/>
    <path id="Trazado_2028" data-name="Trazado 2028" d="M77.5,6.328c-6.87-.153-10.778,1.038-15.3,6.565h-.489l1.374-5.618H42.636L35.98,49.38H56.437L59,33.2c.824-5.221,4.03-8.4,9.343-8.4,2.626,0,3.969,1.038,5.893,2.29Z" transform="translate(73.877 10.373)" fill="#000f9f"/>
    <path id="Trazado_2029" data-name="Trazado 2029" d="M47.63,45.646c5.679,2.626,11.877,4.672,18.533,4.672,9.526,0,21.1-4.519,22.808-15.45,1.343-8.488-4.214-11.022-11.3-12.213-2.778-.489-4.977-.641-4.641-2.687.244-1.5,1.954-1.893,3.236-1.893a14.644,14.644,0,0,1,8.885,3.481L91.994,9.892C87.811,7.358,81.46,6.32,76.239,6.32,67.2,6.32,55.9,10.534,54.256,21.067,53,29.006,58.9,31.754,65.583,32.731c1.618.244,4.061.305,3.694,2.626-.244,1.588-2.015,2.29-3.389,2.29-3.481,0-7.267-2.137-9.862-3.878l-1.16-.794Z" transform="translate(97.797 10.381)" fill="#000f9f"/>
    <path id="Trazado_2030" data-name="Trazado 2030" d="M83.2,28.12c.489-3.084,2.992-5.8,6.229-5.8s5.1,2.382,4.58,5.618-2.6,6.351-6.473,6.351C83.811,34.319,82.681,31.448,83.2,28.12Zm6.778,21.251h20.06l6.656-42.1H96.634l-.153,5.007h-.489C93.642,8.152,89.734,6.32,84.635,6.32c-11.877,0-20.152,11.572-21.831,22.2-1.618,10.228,2.9,21.8,14.289,21.8,5.8,0,9.526-2.534,13.862-6.5h.489Z" transform="translate(128.3 10.381)" fill="#000f9f"/>
  </g>
  <g id="Grupo_8722" data-name="Grupo 8722" transform="translate(75.324)">
    <path id="Trazado_2031" data-name="Trazado 2031" d="M24.67,10.592h1.924V6.042H29.8V4.516H26.594V1.707h3.359V.18H24.67Z" transform="translate(-24.67 0.37)" fill="#1d1d1c"/>
    <path id="Trazado_2032" data-name="Trazado 2032" d="M36.341,7.014a3.091,3.091,0,0,1-2.015.611c-1.435,0-1.954-.794-1.954-2.107h4.458V5.152c0-3.145-1.4-4.122-3.084-4.122-1.954,0-3.175,1.771-3.175,4.091,0,2.076,1.069,3.847,3.542,3.847A5.819,5.819,0,0,0,36.4,8.48ZM32.371,4.328c0-1.008.4-2.046,1.374-2.046.824,0,1.282.672,1.282,2.046Z" transform="translate(-12.556 2.115)" fill="#1d1d1c"/>
    <path id="Trazado_2033" data-name="Trazado 2033" d="M37.021,8.826h1.863V4.612c0-1.435.824-1.893,1.588-1.893a2.689,2.689,0,0,1,.519.061V1.071c-.092,0-.183-.031-.305-.031a2.106,2.106,0,0,0-1.954,1.527H38.7c0-.458-.031-.947-.061-1.4H36.96c.031.336.061.794.061,1.282C37.021,2.445,37.021,8.826,37.021,8.826Z" transform="translate(0.565 2.135)" fill="#1d1d1c"/>
    <path id="Trazado_2034" data-name="Trazado 2034" d="M42.611,8.826h1.862V4.612c0-1.435.824-1.893,1.588-1.893a2.689,2.689,0,0,1,.519.061V1.071c-.092,0-.183-.031-.305-.031a2.106,2.106,0,0,0-1.954,1.527H44.29c0-.458-.031-.947-.061-1.4H42.55c.031.336.061.794.061,1.282C42.611,2.445,42.611,8.826,42.611,8.826Z" transform="translate(12.043 2.135)" fill="#1d1d1c"/>
    <path id="Trazado_2035" data-name="Trazado 2035" d="M53.8,7.014a3.091,3.091,0,0,1-2.015.611c-1.435,0-1.954-.794-1.954-2.107h4.458V5.152c0-3.145-1.4-4.122-3.084-4.122-1.954,0-3.175,1.771-3.175,4.091,0,2.076,1.069,3.847,3.542,3.847a5.819,5.819,0,0,0,2.29-.489ZM49.831,4.328c0-1.008.4-2.046,1.374-2.046.824,0,1.282.672,1.282,2.046Z" transform="translate(23.294 2.115)" fill="#1d1d1c"/>
    <path id="Trazado_2036" data-name="Trazado 2036" d="M55.471,2.507H54.25V3.881h1.221V8.095c0,1.618.763,2.229,2.137,2.229a3.234,3.234,0,0,0,1.252-.244V8.766a1.591,1.591,0,0,1-.7.153c-.55,0-.824-.244-.824-1.069V3.881H58.86V2.507H57.334V.37L55.471.95Z" transform="translate(36.066 0.76)" fill="#1d1d1c"/>
    <path id="Trazado_2037" data-name="Trazado 2037" d="M65.721,7.014a3.091,3.091,0,0,1-2.015.611c-1.435,0-1.954-.794-1.954-2.107h4.458V5.152c0-3.145-1.4-4.122-3.084-4.122-1.954,0-3.175,1.771-3.175,4.091,0,2.076,1.069,3.847,3.542,3.847a5.819,5.819,0,0,0,2.29-.489ZM61.751,4.328c0-1.008.4-2.046,1.374-2.046.824,0,1.282.672,1.282,2.046Z" transform="translate(47.769 2.115)" fill="#1d1d1c"/>
    <path id="Trazado_2038" data-name="Trazado 2038" d="M66.4,8.826h1.862V4.612c0-1.435.824-1.893,1.588-1.893a2.689,2.689,0,0,1,.519.061V1.071c-.092,0-.183-.031-.305-.031a2.107,2.107,0,0,0-1.954,1.527H68.08c0-.458-.031-.947-.061-1.4H66.34c.031.336.061.794.061,1.282C66.4,2.445,66.4,8.826,66.4,8.826Z" transform="translate(60.89 2.135)" fill="#1d1d1c"/>
    <path id="Trazado_2039" data-name="Trazado 2039" d="M72.021,10.961h1.862V3.267H72.021ZM71.99,1.832h1.924V0H71.99Z" transform="translate(72.491)" fill="#1d1d1c"/>
    <path id="Trazado_2040" data-name="Trazado 2040" d="M77.835,3.086a3.558,3.558,0,0,1,2.107-.733,1.32,1.32,0,0,1,1.435,1.466v.275h-.366c-2.351,0-4.061.519-4.061,2.626a2.2,2.2,0,0,0,2.29,2.259,2.483,2.483,0,0,0,2.137-1.16h.031A3.76,3.76,0,0,0,81.5,8.856h1.71a12.687,12.687,0,0,1-.092-1.374V4.124c0-1.924-.55-3.084-2.931-3.084a5.256,5.256,0,0,0-2.443.58ZM81.377,5.5c0,1.374-.4,2.2-1.5,2.2A1.138,1.138,0,0,1,78.69,6.505c0-1.13.947-1.435,2.534-1.435h.153S81.377,5.5,81.377,5.5Z" transform="translate(82.675 2.135)" fill="#1d1d1c"/>
  </g>
  <g id="Grupo_8723" data-name="Grupo 8723" transform="translate(0 73.798)">
    <rect id="Rectángulo_1040" data-name="Rectángulo 1040" width="285.969" height="14.992" fill="#e10b17"/>
    <path id="Trazado_2041" data-name="Trazado 2041" d="M80.884,24.74l-2.5,11.328H84l.824-6.229,2.443,6.229h3.389l2.6-6.259.794,6.259h5.587L96.944,24.74h-5.71l-2.259,5.893L86.838,24.74Z" transform="translate(160.935 -23)" fill="#fff"/>
    <path id="Trazado_2042" data-name="Trazado 2042" d="M84.9,24.74H96.96V28.5H93.846v7.572h-5.8V28.5H84.9Z" transform="translate(174.323 -23)" fill="#fff"/>
    <path id="Trazado_2043" data-name="Trazado 2043" d="M88.83,35.285a33.675,33.675,0,0,0,3.359.763,13.925,13.925,0,0,0,3.328.214,10.4,10.4,0,0,0,3.6-.794,3.743,3.743,0,0,0,2.229-2.015,2.688,2.688,0,0,0-.153-2.717A4.963,4.963,0,0,0,98.784,29.3a19.53,19.53,0,0,0-3.084-.519c-.824-.061-.58-.55-.58-.55.031-.58,1.649-.458,1.771-.458a9.561,9.561,0,0,1,2.626.855l1.588-2.962a12.094,12.094,0,0,0-4.214-.947,10.706,10.706,0,0,0-4.427.58c-3.236,1.038-3.084,3.511-3.084,3.511a2.59,2.59,0,0,0,1.252,2.2,8.821,8.821,0,0,0,3.328.977,3.986,3.986,0,0,1,1.466.214c.733.214.183.794.183.794a3.308,3.308,0,0,1-1.13.244,7.916,7.916,0,0,1-3.969-1.191Z" transform="translate(182.392 -23.133)" fill="#fff"/>
  </g>
  <g id="Grupo_8724" data-name="Grupo 8724" transform="translate(245.453 38.532)">
    <path id="Trazado_2044" data-name="Trazado 2044" d="M80.39,25.339h6.961l1.435-6.809H81.825Z" transform="translate(-80.39 -0.485)" fill="#000f9f"/>
    <path id="Trazado_2045" data-name="Trazado 2045" d="M101.128,25.909l-6.87-1.1-.366,1.008a3.777,3.777,0,0,1-1.1,1.71c-.763.58-1.527.672-2.015.122a1.965,1.965,0,0,1-.366-1.343,11.253,11.253,0,0,1,.519-3.145,4.582,4.582,0,0,1,1.282-2.229,2.02,2.02,0,0,1,2.382-.336,1.988,1.988,0,0,1,.427,1.191l.153,1.282,6.687-.7-.122-1.282a7.086,7.086,0,0,0-2.351-4.794,8.02,8.02,0,0,0-5.4-1.8,10.423,10.423,0,0,0-5.5,1.527A9.622,9.622,0,0,0,84.7,20.261a13.155,13.155,0,0,0-1.221,5.526,8.275,8.275,0,0,0,2.168,5.984A7.919,7.919,0,0,0,91.48,34a9.343,9.343,0,0,0,5.526-1.71,10.184,10.184,0,0,0,3.572-4.916Z" transform="translate(-74.045 -8.78)" fill="#000f9f"/>
    <path id="Trazado_2046" data-name="Trazado 2046" d="M94.061,12.62,88.84,37.474h7.023l5.191-24.854Z" transform="translate(-63.04 -12.62)" fill="#000f9f"/>
  </g>
</svg>
